{
  "accessors": [
    {
      "bufferView": 2,
      "componentType": 5126,
      "count": 7166,
      "max": [
        2.6648502349853516,
        2.383272647857666,
        1.1733760833740234
      ],
      "min": [
        -2.907327175140381,
        -0.023593533784151077,
        -0.8702226877212524
      ],
      "type": "VEC3"
    },
    {
      "bufferView": 2,
      "byteOffset": 85992,
      "componentType": 5126,
      "count": 7166,
      "max": [
        1.0,
        0.9921345710754395,
        0.9988142848014832
      ],
      "min": [
        -1.0,
        -0.9960079193115234,
        -0.9991128444671631
      ],
      "type": "VEC3"
    },
    {
      "bufferView": 1,
      "componentType": 5126,
      "count": 7166,
      "max": [
        0.8721030950546265,
        0.4664013385772705
      ],
      "min": [
        0.013769358396530151,
        0.022800981998443604
      ],
      "type": "VEC2"
    },
    {
      "bufferView": 0,
      "componentType": 5125,
      "count": 10704,
      "type": "SCALAR"
    },
    {
      "bufferView": 2,
      "byteOffset": 171984,
      "componentType": 5126,
      "count": 24,
      "max": [
        2.960343837738037,
        2.5455243587493896,
        1.34690523147583
      ],
      "min": [
        -2.9603428840637207,
        2.377124071121216,
        -1.3469057083129883
      ],
      "type": "VEC3"
    },
    {
      "bufferView": 2,
      "byteOffset": 172272,
      "componentType": 5126,
      "count": 24,
      "max": [
        1.0,
        1.0,
        1.0
      ],
      "min": [
        -1.0,
        -1.0,
        -1.0
      ],
      "type": "VEC3"
    },
    {
      "bufferView": 1,
      "byteOffset": 57328,
      "componentType": 5126,
      "count": 24,
      "max": [
        0.9862306118011475,
        0.8263117074966431
      ],
      "min": [
        0.013769358396530151,
        0.011536628007888794
      ],
      "type": "VEC2"
    },
    {
      "bufferView": 0,
      "byteOffset": 42816,
      "componentType": 5125,
      "count": 36,
      "type": "SCALAR"
    }
  ],
  "asset": {
    "extras": {
      "author": "MrPuppet (https://sketchfab.com/MrPuppet)",
      "license": "CC-BY-4.0 (http://creativecommons.org/licenses/by/4.0/)",
      "source": "https://sketchfab.com/3d-models/simple-modern-computer-desk-a2a8393b22614d9aa52f1375bd4c40ba",
      "title": "Simple Modern Computer Desk"
    },
    "generator": "Sketchfab-13.4.0",
    "version": "2.0"
  },
  "bufferViews": [
    {
      "buffer": 0,
      "byteLength": 42960,
      "name": "floatBufferViews",
      "target": 34963
    },
    {
      "buffer": 0,
      "byteLength": 57520,
      "byteOffset": 42960,
      "byteStride": 8,
      "name": "floatBufferViews",
      "target": 34962
    },
    {
      "buffer": 0,
      "byteLength": 172560,
      "byteOffset": 100480,
      "byteStride": 12,
      "name": "floatBufferViews",
      "target": 34962
    }
  ],
  "buffers": [
    {
      "byteLength": 273040,
      "uri": "scene.bin"
    }
  ],
  "materials": [
    {
      "doubleSided": true,
      "name": "pasted__blinn2",
      "pbrMetallicRoughness": {
        "baseColorFactor": [
          0.290323,
          0.290323,
          0.290323,
          1.0
        ],
        "metallicFactor": 0.0,
        "roughnessFactor": 0.9207483816249483
      }
    },
    {
      "doubleSided": true,
      "name": "pasted__phong6",
      "pbrMetallicRoughness": {
        "baseColorFactor": [
          0.924,
          0.7355,
          0.5276,
          1.0
        ],
        "metallicFactor": 0.0,
        "roughnessFactor": 0.8942628736559436
      }
    }
  ],
  "meshes": [
    {
      "name": "simple_modern_computer_desk_pasted__blinn2_0",
      "primitives": [
        {
          "attributes": {
            "NORMAL": 1,
            "POSITION": 0,
            "TEXCOORD_0": 2
          },
          "indices": 3,
          "material": 0,
          "mode": 4
        }
      ]
    },
    {
      "name": "simple_modern_computer_desk_pasted__phong6_0",
      "primitives": [
        {
          "attributes": {
            "NORMAL": 5,
            "POSITION": 4,
            "TEXCOORD_0": 6
          },
          "indices": 7,
          "material": 1,
          "mode": 4
        }
      ]
    }
  ],
  "nodes": [
    {
      "children": [
        1
      ],
      "matrix": [
        1.0,
        0.0,
        0.0,
        0.0,
        0.0,
        2.220446049250313e-16,
        -1.0,
        0.0,
        0.0,
        1.0,
        2.220446049250313e-16,
        0.0,
        0.0,
        0.0,
        0.0,
        1.0
      ],
      "name": "Sketchfab_model"
    },
    {
      "children": [
        2
      ],
      "matrix": [
        0.009999999776482582,
        0.0,
        0.0,
        0.0,
        0.0,
        0.0,
        0.009999999776482582,
        0.0,
        0.0,
        -0.009999999776482582,
        0.0,
        0.0,
        0.0,
        0.0,
        0.0,
        1.0
      ],
      "name": "b9e3eb5d16c04c568a5789a4d718475e.fbx"
    },
    {
      "children": [
        3
      ],
      "name": "RootNode"
    },
    {
      "children": [
        4,
        5
      ],
      "name": "simple_modern_computer_desk"
    },
    {
      "mesh": 0,
      "name": "simple_modern_computer_desk_pasted__blinn2_0"
    },
    {
      "mesh": 1,
      "name": "simple_modern_computer_desk_pasted__phong6_0"
    }
  ],
  "scene": 0,
  "scenes": [
    {
      "name": "Sketchfab_Scene",
      "nodes": [
        0
      ]
    }
  ]
}
