<svg width="252" height="32" viewBox="0 0 252 32" fill="none" xmlns="http://www.w3.org/2000/svg">
<path d="M1.37799 30V30.5H1.87799H22.078H22.578V30V24.68V24.18H22.078H8.57799V18.94H20.558H21.058V18.44V13.32V12.82H20.558H8.57799V7.77998H21.838H22.338V7.27998V1.99998V1.49998H21.838H1.87799H1.37799V1.99998V30ZM28.2608 30V30.5H28.7608H39.0808C44.1794 30.5 48.0493 28.9988 50.6447 26.3982C53.2388 23.7989 54.5008 20.1602 54.5008 16C54.5008 11.8398 53.2388 8.20109 50.6447 5.60178C48.0493 3.00111 44.1794 1.49998 39.0808 1.49998H28.7608H28.2608V1.99998V30ZM60.2064 1.49998H59.7064V1.99998V19.12C59.7064 23.4125 61.2513 26.4155 63.6764 28.3322C66.0826 30.2341 69.2957 31.02 72.5664 31.02C75.8371 31.02 79.0597 30.2342 81.4756 28.3329C83.9107 26.4166 85.4664 23.4137 85.4664 19.12V1.99998V1.49998H84.9664H78.7664H78.2664V1.99998V18.76C78.2664 20.8239 77.6767 22.2017 76.7244 23.0706C75.7637 23.9472 74.3536 24.38 72.5664 24.38C70.8005 24.38 69.4003 23.9478 68.4443 23.0714C67.4962 22.2023 66.9064 20.8239 66.9064 18.76V1.99998V1.49998H66.4064H60.2064ZM114.703 3.27998V2.96646L114.42 2.8299C111.869 1.59532 109.034 0.97998 106.203 0.97998C101.962 0.97998 98.0662 2.29138 95.2237 4.84289C92.3738 7.40099 90.6227 11.1709 90.6227 16C90.6227 20.5 92.1872 24.2662 94.9471 26.9063C97.7048 29.5443 101.616 31.02 106.243 31.02C109.277 31.02 112.072 30.3633 114.62 29.1301L114.903 28.9935V28.68V22.88V21.9404L114.123 22.4653C112.262 23.7188 109.845 24.38 107.123 24.38C104.212 24.38 101.946 23.5756 100.413 22.1533C98.8839 20.7357 98.0227 18.6493 98.0227 15.96C98.0227 13.1568 98.9497 11.082 100.491 9.70257C102.041 8.31588 104.27 7.57998 106.963 7.57998C109.486 7.57998 111.875 8.16188 113.948 9.39013L114.703 9.83748V8.95998V3.27998ZM117.473 29.8109L117.191 30.5H117.935H124.575H124.924L125.045 30.1732L126.844 25.3H138.705L140.465 30.17L140.585 30.5H140.935H147.575H148.319L148.039 29.8114L136.639 1.81144L136.512 1.49998H136.175H129.375H129.04L128.913 1.81087L117.473 29.8109ZM155.937 30V30.5H156.437H162.637H163.137V30V8.05998H171.237H171.737V7.55998V1.99998V1.49998H171.237H147.797H147.297V1.99998V7.55998V8.05998H147.797H155.937V30ZM176.269 30V30.5H176.769H182.969H183.469V30V1.99998V1.49998H182.969H176.769H176.269V1.99998V30ZM224.956 30V30.5H225.456H231.576H232.076V30V13.699L244.132 30.2939L244.281 30.5H244.536H250.136H250.636V30V1.99998V1.49998H250.136H243.976H243.476V1.99998V18.2638L231.42 1.70568L231.271 1.49998H231.016H225.456H224.956V1.99998V30ZM39.0408 24.06H35.4608V7.93998H39.0408C41.635 7.93998 43.6331 8.63604 44.9822 9.94838C46.3288 11.2584 47.1008 13.2527 47.1008 16C47.1008 18.7472 46.3288 20.7416 44.9822 22.0516C43.6331 23.3639 41.635 24.06 39.0408 24.06ZM136.502 19.3H129.011L132.774 9.03906L136.502 19.3ZM188.779 16C188.779 19.8864 190.054 23.6436 192.632 26.4342C195.216 29.232 199.074 31.02 204.159 31.02C209.244 31.02 213.112 29.2321 215.706 26.435C218.293 23.6447 219.579 19.8875 219.579 16C219.579 12.1125 218.293 8.35523 215.706 5.56499C213.112 2.76782 209.244 0.97998 204.159 0.97998C199.074 0.97998 195.216 2.76794 192.632 5.56573C190.054 8.35636 188.779 12.1135 188.779 16ZM204.159 24.26C201.581 24.26 199.601 23.3664 198.261 21.9158C196.917 20.4598 196.179 18.3989 196.179 16C196.179 13.6011 196.917 11.5402 198.261 10.0842C199.601 8.63355 201.581 7.73998 204.159 7.73998C206.757 7.73998 208.737 8.63408 210.071 10.0835C211.41 11.5387 212.139 13.5994 212.139 16C212.139 18.4006 211.41 20.4612 210.071 21.9164C208.737 23.3659 206.757 24.26 204.159 24.26Z" stroke="black"/>
</svg>
