{
  "accessors": [
    {
      "bufferView": 2,
      "componentType": 5126,
      "count": 448,
      "max": [
        9.162233352661133,
        2.9423463344573975,
        5.398316860198975
      ],
      "min": [
        -9.162233352661133,
        -0.9057220220565796,
        -7.70547342300415
      ],
      "type": "VEC3"
    },
    {
      "bufferView": 2,
      "byteOffset": 5376,
      "componentType": 5126,
      "count": 448,
      "max": [
        1.0,
        1.0,
        1.0
      ],
      "min": [
        -1.0,
        -1.0,
        -1.0
      ],
      "type": "VEC3"
    },
    {
      "bufferView": 1,
      "componentType": 5126,
      "count": 448,
      "max": [
        1.0,
        0.9598536491394043
      ],
      "min": [
        0.0,
        0.0
      ],
      "type": "VEC2"
    },
    {
      "bufferView": 0,
      "componentType": 5125,
      "count": 876,
      "type": "SCALAR"
    },
    {
      "bufferView": 2,
      "byteOffset": 10752,
      "componentType": 5126,
      "count": 39,
      "max": [
        8.874500274658203,
        -0.1576174795627594,
        5.110584259033203
      ],
      "min": [
        -8.874500274658203,
        -0.1576174795627594,
        -5.110584259033203
      ],
      "type": "VEC3"
    },
    {
      "bufferView": 2,
      "byteOffset": 11220,
      "componentType": 5126,
      "count": 39,
      "max": [
        0.0,
        -1.0,
        1.6060898444525407e-10
      ],
      "min": [
        0.0,
        -1.0,
        0.0
      ],
      "type": "VEC3"
    },
    {
      "bufferView": 1,
      "byteOffset": 3584,
      "componentType": 5126,
      "count": 39,
      "max": [
        1.0026299953460693,
        1.0048751831054688
      ],
      "min": [
        0.0011566020548343658,
        -0.004875063896179199
      ],
      "type": "VEC2"
    },
    {
      "bufferView": 0,
      "byteOffset": 3504,
      "componentType": 5125,
      "count": 144,
      "type": "SCALAR"
    },
    {
      "bufferView": 2,
      "byteOffset": 11688,
      "componentType": 5126,
      "count": 40,
      "max": [
        6.096907615661621,
        0.5639164447784424,
        -0.5648007988929749
      ],
      "min": [
        4.161781311035156,
        0.2306864857673645,
        -0.9384338855743408
      ],
      "type": "VEC3"
    },
    {
      "bufferView": 2,
      "byteOffset": 12168,
      "componentType": 5126,
      "count": 40,
      "max": [
        0.9999974370002747,
        0.9718472957611084,
        0.2356119006872177
      ],
      "min": [
        -0.9999974370002747,
        -0.9716628789901733,
        -0.9734129905700684
      ],
      "type": "VEC3"
    },
    {
      "bufferView": 1,
      "byteOffset": 3896,
      "componentType": 5126,
      "count": 40,
      "max": [
        1.0,
        0.6924822926521301
      ],
      "min": [
        0.0,
        0.0
      ],
      "type": "VEC2"
    },
    {
      "bufferView": 0,
      "byteOffset": 4080,
      "componentType": 5125,
      "count": 60,
      "type": "SCALAR"
    },
    {
      "bufferView": 2,
      "byteOffset": 12648,
      "componentType": 5126,
      "count": 144,
      "max": [
        0.07500000298023224,
        0.02500000037252903,
        0.07500000298023224
      ],
      "min": [
        -0.07500000298023224,
        -0.02500000037252903,
        -0.07500000298023224
      ],
      "type": "VEC3"
    },
    {
      "bufferView": 2,
      "byteOffset": 14376,
      "componentType": 5126,
      "count": 144,
      "max": [
        1.0,
        1.0,
        1.0
      ],
      "min": [
        -1.0,
        -1.0,
        -1.0
      ],
      "type": "VEC3"
    },
    {
      "bufferView": 1,
      "byteOffset": 4216,
      "componentType": 5126,
      "count": 144,
      "max": [
        1.0,
        0.7562879323959351
      ],
      "min": [
        0.0,
        0.0
      ],
      "type": "VEC2"
    },
    {
      "bufferView": 0,
      "byteOffset": 4320,
      "componentType": 5125,
      "count": 228,
      "type": "SCALAR"
    },
    {
      "bufferView": 2,
      "byteOffset": 16104,
      "componentType": 5126,
      "count": 24,
      "max": [
        1.0,
        0.18522924184799194,
        1.0
      ],
      "min": [
        -1.0,
        -0.18522924184799194,
        -1.0
      ],
      "type": "VEC3"
    },
    {
      "bufferView": 2,
      "byteOffset": 16392,
      "componentType": 5126,
      "count": 24,
      "max": [
        1.0,
        1.0,
        1.0
      ],
      "min": [
        -1.0,
        -1.0,
        -1.0
      ],
      "type": "VEC3"
    },
    {
      "bufferView": 1,
      "byteOffset": 5368,
      "componentType": 5126,
      "count": 24,
      "max": [
        0.8704584836959839,
        1.0
      ],
      "min": [
        0.0,
        0.0
      ],
      "type": "VEC2"
    },
    {
      "bufferView": 0,
      "byteOffset": 5232,
      "componentType": 5125,
      "count": 36,
      "type": "SCALAR"
    },
    {
      "bufferView": 2,
      "byteOffset": 16680,
      "componentType": 5126,
      "count": 24,
      "max": [
        1.0,
        0.18522924184799194,
        1.0
      ],
      "min": [
        -1.0,
        -0.18522924184799194,
        -1.0
      ],
      "type": "VEC3"
    },
    {
      "bufferView": 2,
      "byteOffset": 16968,
      "componentType": 5126,
      "count": 24,
      "max": [
        1.0,
        1.0,
        1.0
      ],
      "min": [
        -1.0,
        -1.0,
        -1.0
      ],
      "type": "VEC3"
    },
    {
      "bufferView": 1,
      "byteOffset": 5560,
      "componentType": 5126,
      "count": 24,
      "max": [
        0.8704584836959839,
        1.0
      ],
      "min": [
        0.0,
        0.0
      ],
      "type": "VEC2"
    },
    {
      "bufferView": 0,
      "byteOffset": 5376,
      "componentType": 5125,
      "count": 36,
      "type": "SCALAR"
    }
  ],
  "asset": {
    "extras": {
      "author": "portgl16 (https://sketchfab.com/portgl16)",
      "license": "CC-BY-4.0 (http://creativecommons.org/licenses/by/4.0/)",
      "source": "https://sketchfab.com/3d-models/monitor-9f6f9018f14a4dbea1ad1aea0ce89e7c",
      "title": "Monitor"
    },
    "generator": "Sketchfab-12.66.0",
    "version": "2.0"
  },
  "bufferViews": [
    {
      "buffer": 0,
      "byteLength": 5520,
      "name": "floatBufferViews",
      "target": 34963
    },
    {
      "buffer": 0,
      "byteLength": 5752,
      "byteOffset": 5520,
      "byteStride": 8,
      "name": "floatBufferViews",
      "target": 34962
    },
    {
      "buffer": 0,
      "byteLength": 17256,
      "byteOffset": 11272,
      "byteStride": 12,
      "name": "floatBufferViews",
      "target": 34962
    }
  ],
  "buffers": [
    {
      "byteLength": 28528,
      "uri": "scene.bin"
    }
  ],
  "images": [
    {
      "uri": "textures/RenderMonitor_baseColor.png"
    }
  ],
  "materials": [
    {
      "doubleSided": true,
      "name": "Case",
      "pbrMetallicRoughness": {
        "baseColorFactor": [
          0.0,
          0.0,
          0.0,
          1.0
        ],
        "metallicFactor": 0.0
      }
    },
    {
      "doubleSided": true,
      "name": "RenderMonitor",
      "pbrMetallicRoughness": {
        "baseColorTexture": {
          "index": 0
        },
        "metallicFactor": 0.0,
        "roughnessFactor": 0.9847274229980322
      }
    },
    {
      "doubleSided": true,
      "name": "material",
      "pbrMetallicRoughness": {
        "baseColorFactor": [
          0.310813,
          0.310813,
          0.310813,
          1.0
        ],
        "metallicFactor": 0.0,
        "roughnessFactor": 0.9116053500436718
      }
    },
    {
      "doubleSided": true,
      "name": "Button_Material",
      "pbrMetallicRoughness": {
        "baseColorFactor": [
          0.8,
          0.0095146,
          0.0095146,
          1.0
        ],
        "metallicFactor": 0.0,
        "roughnessFactor": 0.950425593952605
      }
    },
    {
      "doubleSided": true,
      "name": "ButtonTwoMaterial",
      "pbrMetallicRoughness": {
        "baseColorFactor": [
          0.0549691,
          0.0549691,
          0.0549691,
          1.0
        ],
        "metallicFactor": 0.0
      }
    },
    {
      "doubleSided": true,
      "name": "ButtonTwoMaterial.001",
      "pbrMetallicRoughness": {
        "baseColorFactor": [
          0.0549691,
          0.0549691,
          0.0549691,
          1.0
        ],
        "metallicFactor": 0.0
      }
    }
  ],
  "meshes": [
    {
      "name": "Cube_Case_0",
      "primitives": [
        {
          "attributes": {
            "NORMAL": 1,
            "POSITION": 0,
            "TEXCOORD_0": 2
          },
          "indices": 3,
          "material": 0,
          "mode": 4
        }
      ]
    },
    {
      "name": "Cube_RenderMonitor_0",
      "primitives": [
        {
          "attributes": {
            "NORMAL": 5,
            "POSITION": 4,
            "TEXCOORD_0": 6
          },
          "indices": 7,
          "material": 1,
          "mode": 4
        }
      ]
    },
    {
      "name": "Cube_USB_0",
      "primitives": [
        {
          "attributes": {
            "NORMAL": 9,
            "POSITION": 8,
            "TEXCOORD_0": 10
          },
          "indices": 11,
          "material": 2,
          "mode": 4
        }
      ]
    },
    {
      "name": "Button_Button Material_0",
      "primitives": [
        {
          "attributes": {
            "NORMAL": 13,
            "POSITION": 12,
            "TEXCOORD_0": 14
          },
          "indices": 15,
          "material": 3,
          "mode": 4
        }
      ]
    },
    {
      "name": "Button two_ButtonTwoMaterial_0",
      "primitives": [
        {
          "attributes": {
            "NORMAL": 17,
            "POSITION": 16,
            "TEXCOORD_0": 18
          },
          "indices": 19,
          "material": 4,
          "mode": 4
        }
      ]
    },
    {
      "name": "Button two.001_ButtonTwoMaterial.001_0",
      "primitives": [
        {
          "attributes": {
            "NORMAL": 21,
            "POSITION": 20,
            "TEXCOORD_0": 22
          },
          "indices": 23,
          "material": 5,
          "mode": 4
        }
      ]
    }
  ],
  "nodes": [
    {
      "children": [
        1
      ],
      "matrix": [
        1.0,
        0.0,
        0.0,
        0.0,
        0.0,
        2.220446049250313e-16,
        -1.0,
        0.0,
        0.0,
        1.0,
        2.220446049250313e-16,
        0.0,
        0.0,
        0.0,
        0.0,
        1.0
      ],
      "name": "Sketchfab_model"
    },
    {
      "children": [
        2
      ],
      "matrix": [
        1.0,
        0.0,
        0.0,
        0.0,
        0.0,
        0.0,
        1.0,
        0.0,
        0.0,
        -1.0,
        0.0,
        0.0,
        0.0,
        0.0,
        0.0,
        1.0
      ],
      "name": "Monitor.fbx"
    },
    {
      "children": [
        3,
        7,
        9,
        11
      ],
      "name": "RootNode"
    },
    {
      "children": [
        4,
        5,
        6
      ],
      "matrix": [
        100.0,
        0.0,
        0.0,
        0.0,
        -0.0,
        -1.629206793918314e-05,
        -99.99999999999868,
        0.0,
        0.0,
        99.99999999999868,
        -1.629206793918314e-05,
        0.0,
        -1575.702880859375,
        30.000019073486328,
        0.0,
        1.0
      ],
      "name": "Cube"
    },
    {
      "mesh": 0,
      "name": "Cube_Case_0"
    },
    {
      "mesh": 1,
      "name": "Cube_RenderMonitor_0"
    },
    {
      "mesh": 2,
      "name": "Cube_USB_0"
    },
    {
      "children": [
        8
      ],
      "matrix": [
        100.0,
        0.0,
        0.0,
        0.0,
        -0.0,
        -1.629206793918314e-05,
        -99.99999999999868,
        0.0,
        0.0,
        99.99999999999868,
        -1.629206793918314e-05,
        0.0,
        -695.82958984375,
        -497.37127685546875,
        28.549375534057617,
        1.0
      ],
      "name": "Button"
    },
    {
      "mesh": 3,
      "name": "Button_Button Material_0"
    },
    {
      "children": [
        10
      ],
      "matrix": [
        20.0,
        0.0,
        0.0,
        0.0,
        -0.0,
        -1.6292067939183141e-06,
        -9.999999999999869,
        0.0,
        0.0,
        7.999999999999894,
        -1.3033654351346513e-06,
        0.0,
        -740.4794921875,
        -496.8316650390625,
        27.90166664123535,
        1.0
      ],
      "name": "Button two"
    },
    {
      "mesh": 4,
      "name": "Button two_ButtonTwoMaterial_0"
    },
    {
      "children": [
        12
      ],
      "matrix": [
        20.0,
        0.0,
        0.0,
        0.0,
        -0.0,
        -1.6292067939183141e-06,
        -9.999999999999869,
        0.0,
        0.0,
        7.999999999999894,
        -1.3033654351346513e-06,
        0.0,
        -792.2214965820313,
        -496.8316650390625,
        27.90166664123535,
        1.0
      ],
      "name": "Button two.001"
    },
    {
      "mesh": 5,
      "name": "Button two.001_ButtonTwoMaterial.001_0"
    }
  ],
  "samplers": [
    {
      "magFilter": 9729,
      "minFilter": 9987,
      "wrapS": 10497,
      "wrapT": 10497
    }
  ],
  "scene": 0,
  "scenes": [
    {
      "name": "Sketchfab_Scene",
      "nodes": [
        0
      ]
    }
  ],
  "textures": [
    {
      "sampler": 0,
      "source": 0
    }
  ]
}
